<svg width="113" height="113" viewBox="0 0 113 113" fill="none" xmlns="http://www.w3.org/2000/svg">
<path fill-rule="evenodd" clip-rule="evenodd" d="M112.39 64.8286C112.074 66.971 111.637 69.0743 111.087 71.1313H1.91284C1.36287 69.0743 0.92609 66.971 0.609564 64.8286H112.39ZM6.03597 81.9364C5.00892 79.9029 4.10118 77.7987 3.32194 75.6333H109.678C108.899 77.7987 107.991 79.9029 106.964 81.9364H6.03597ZM8.57513 86.4384C9.95732 88.6464 11.4879 90.7519 13.1528 92.7412H99.8472C101.512 90.7519 103.043 88.6464 104.425 86.4384H8.57513ZM25.2012 103.546C22.3998 101.678 19.7746 99.5674 17.356 97.2431H95.644C93.2254 99.5674 90.6002 101.678 87.7988 103.546H25.2012ZM33.3344 108.048C40.4035 111.23 48.245 113 56.5 113C64.755 113 72.5965 111.23 79.6656 108.048H33.3344ZM0.127541 60.3266C0.0429659 59.062 0 57.786 0 56.5C0 55.6703 0.017883 54.8448 0.0532847 54.0239H112.947C112.982 54.8448 113 55.6703 113 56.5C113 57.786 112.957 59.062 112.872 60.3266H0.127541ZM1.56969 43.2192C1.0736 45.2784 0.690286 47.3816 0.426667 49.5219H112.573C112.31 47.3816 111.926 45.2784 111.43 43.2192H1.56969ZM2.85532 38.7172C3.57155 36.5554 4.41479 34.4516 5.37621 32.4144H107.624C108.585 34.4516 109.428 36.5554 110.145 38.7172H2.85532ZM12.0569 21.6097C10.487 23.6066 9.0489 25.7119 7.75552 27.9125H105.244C103.951 25.7119 102.513 23.6066 100.943 21.6097H12.0569ZM15.9969 17.1077C18.2339 14.808 20.6651 12.6981 23.264 10.8046H89.736C92.3349 12.6981 94.7661 14.808 97.0031 17.1077H15.9969ZM56.5 0C65.8583 0 74.6852 2.2752 82.4576 6.30262H30.5424C38.3148 2.2752 47.1417 0 56.5 0Z" fill="#FF7D61" fill-opacity="0.2"/>
</svg>
