<svg width="20" height="20" viewBox="0 0 20 20" fill="none" xmlns="http://www.w3.org/2000/svg">
<circle cx="10" cy="10" r="10" fill="#89DB7B"/>
<path d="M13.0775 8.64727L8.64801 12.6886C8.60943 12.7239 8.56359 12.7519 8.51312 12.771C8.46264 12.7902 8.40852 12.8 8.35387 12.8C8.29921 12.8 8.2451 12.7902 8.19462 12.771C8.14415 12.7519 8.0983 12.7239 8.05973 12.6886L6.12184 10.9205C6.08321 10.8853 6.05257 10.8434 6.03166 10.7974C6.01076 10.7513 6 10.702 6 10.6521C6 10.6023 6.01076 10.5529 6.03166 10.5069C6.05257 10.4608 6.08321 10.419 6.12184 10.3838C6.16047 10.3485 6.20632 10.3206 6.25679 10.3015C6.30726 10.2824 6.36135 10.2726 6.41598 10.2726C6.47061 10.2726 6.5247 10.2824 6.57517 10.3015C6.62564 10.3206 6.6715 10.3485 6.71013 10.3838L8.35421 11.8838L12.4899 8.11116C12.5679 8.03999 12.6737 8 12.784 8C12.8943 8 13.0001 8.03999 13.0782 8.11116C13.1562 8.18234 13.2 8.27887 13.2 8.37953C13.2 8.48019 13.1562 8.57672 13.0782 8.6479L13.0775 8.64727Z" fill="white"/>
</svg>
